# xmcd
#
# Track frame offsets:
#	150
#	21742
#	38375
#	57147
#	77112
#	98027
#	126187
#	143532
#	166365
#	189192
#
# Disc length: 2777 seconds
#
# Revision: 0
# Processed by: cddbd v1.4PL0 Copyright (c) Steve Scherf et al.
# Submitted via: EasyCDDAExtractor 4.6.0.1
#
DISCID=770ad70a
DTITLE=King Ernest - King of Hearts
DYEAR=1997
DGENRE=Blues
TTITLE0=I Resign
TTITLE1=I'm Not The One
TTITLE2=In The Dark
TTITLE3=Black Bag Blues
TTITLE4=Better Days
TTITLE5=Long As I Have You
TTITLE6=Tell Me What's The Reason
TTITLE7=Cryin' For My Baby
TTITLE8=Sadie
TTITLE9=Forgive Me
EXTD=
EXTT0=
EXTT1=
EXTT2=
EXTT3=
EXTT4=
EXTT5=
EXTT6=
EXTT7=
EXTT8=
EXTT9=
PLAYORDER=
